# xmcd
#
# Track frame offsets: 
#        150
#        25451
#        44302
#        67792
#        87970
#        106366
#        132162
#        153866
#        174211
#        190736
#        219552
#        237990
#        264124
#
# Disc length: 4103 seconds
#
# Revision: 0
# Processed by: cddbd v1.5.1PL0 Copyright (c) Steve Scherf et al.
# Submitted via: ExactAudioCopy v0.95a5
#
DISCID=a010050d
DTITLE=Henderson, Bugs and The Shuffle Kings - Stormy Love
DYEAR=2004
DGENRE=Blues
TTITLE0=Stormy Love
TTITLE1=Hold the Line
TTITLE2=Shining Again
TTITLE3=Maid of Sugar - Maid of Spice
TTITLE4=The Vent
TTITLE5=Tom's Trip to Texas
TTITLE6=Woman on Fire
TTITLE7=(The Whole World) Sighs
TTITLE8=The Vent - Refried
TTITLE9=The Train Song (Lover's Prayer)
TTITLE10=Wish I Could Write Like Billy Joe
TTITLE11=Shadow of the Rose
TTITLE12=Audio Liner Notes
EXTD=
EXTT0=
EXTT1=
EXTT2=
EXTT3=
EXTT4=
EXTT5=
EXTT6=
EXTT7=
EXTT8=
EXTT9=
EXTT10=
EXTT11=
EXTT12=
PLAYORDER=
